<?xml version="1.0" encoding="UTF-8" standalone="no"?>
<svg
   xmlns:dc="http://purl.org/dc/elements/1.1/"
   xmlns:cc="http://creativecommons.org/ns#"
   xmlns:rdf="http://www.w3.org/1999/02/22-rdf-syntax-ns#"
   xmlns:svg="http://www.w3.org/2000/svg"
   xmlns="http://www.w3.org/2000/svg"
   xmlns:sodipodi="http://sodipodi.sourceforge.net/DTD/sodipodi-0.dtd"
   xmlns:inkscape="http://www.inkscape.org/namespaces/inkscape"
   inkscape:version="1.0 (1.0+r73+1)"
   sodipodi:docname="logo-negative.svg"
   version="1.1"
   viewBox="0 0 399.75 330.43155"
   height="330.43155"
   width="399.75"
   id="svg">
  <metadata
     id="metadata9">
    <rdf:RDF>
      <cc:Work
         rdf:about="">
        <dc:format>image/svg+xml</dc:format>
        <dc:type
           rdf:resource="http://purl.org/dc/dcmitype/StillImage" />
        <dc:title></dc:title>
      </cc:Work>
    </rdf:RDF>
  </metadata>
  <defs
     id="defs7" />
  <sodipodi:namedview
     inkscape:current-layer="svg"
     inkscape:window-maximized="1"
     inkscape:window-y="0"
     inkscape:window-x="1920"
     inkscape:cy="206.41708"
     inkscape:cx="128.93719"
     inkscape:zoom="1.9273608"
     fit-margin-bottom="0"
     fit-margin-right="0"
     fit-margin-left="0"
     fit-margin-top="0"
     inkscape:pagecheckerboard="true"
     showgrid="false"
     id="namedview5"
     inkscape:window-height="1043"
     inkscape:window-width="2560"
     inkscape:pageshadow="2"
     inkscape:pageopacity="0"
     guidetolerance="10"
     gridtolerance="10"
     objecttolerance="10"
     borderopacity="1"
     bordercolor="#666666"
     pagecolor="#ffffff" />
  <g
     style="fill:#ffffff"
     transform="translate(-0.25,-0.04145989)"
     id="svgg">
    <path
       d="M 327.26758,0.04296875 C 323.45835,0.06288477 320.5,0.280875 320.5,0.75 c 0,0.501 0.50181,0.75 1.50781,0.75 1.518,0 2.96192,0.618 4.66992,2 0.511,0.413 1.073,0.7215469 1.25,0.6855469 0.178,-0.036 0.84347,0.133 1.48047,0.375 0.636,0.242 1.367,0.4394531 1.625,0.4394531 0.257,0 0.4668,0.1765781 0.4668,0.3925781 0,0.216 0.619,0.7608906 1.375,1.2128907 1.992,1.19 6.75598,5.9135312 7.58398,7.5195312 0.391,0.756 0.897,1.375 1.125,1.375 0.229,0 0.41602,0.209797 0.41602,0.466797 0,0.258 0.25917,1.101 0.57617,1.875 0.317,0.775 0.64361,1.740437 0.72461,2.148437 0.08,0.407 0.38188,0.820969 0.67188,0.917969 0.29,0.096 0.52734,0.474797 0.52734,0.841797 0,0.367 0.281,0.76 0.625,0.875 0.92,0.307 0.92,284.943 0,285.25 -0.344,0.115 -0.625,0.43017 -0.625,0.70117 0,0.272 -0.34086,0.835 -0.75586,1.25 -0.415,0.415 -0.62475,0.95989 -0.46875,1.21289 0.156,0.253 0.0734,0.46094 -0.18359,0.46094 -0.257,0 -0.60066,0.66836 -0.76368,1.48438 -0.32798,1.64298 -0.46371,1.82562 -4.88671,6.64062 -1.705,1.856 -3.3768,3.375 -3.7168,3.375 -0.339,0 -0.72638,0.28386 -0.85938,0.63086 -0.245,0.638 -4.52745,2.98941 -5.81445,3.19141 -0.385,0.061 -0.86726,0.38189 -1.07226,0.71289 -0.204,0.331 -1.52079,0.71265 -2.92579,0.84765 -2.075,0.199 -2.55273,0.42064 -2.55273,1.18164 0,1.495 21.65455,0.98022 23.18555,-0.55078 0.283,-0.283 1.03206,-0.51367 1.66406,-0.51367 0.633,0 1.15039,-0.225 1.15039,-0.5 0,-0.275 0.45,-0.5 1,-0.5 0.55,0 1,-0.23072 1,-0.51172 0,-0.281 0.619,-0.78128 1.375,-1.11328 0.756,-0.332 1.55539,-0.88928 1.77539,-1.23828 0.22,-0.35 0.839,-0.63672 1.375,-0.63672 0.536,0 0.97461,-0.22214 0.97461,-0.49414 0,-0.744 1.63617,-2.50586 2.32617,-2.50586 0.333,0 0.74883,-0.45 0.92383,-1 0.175,-0.55 0.66489,-1 1.08789,-1 0.456,0 0.66,-0.28713 0.5,-0.70312 -0.148,-0.38701 0.14339,-1.07811 0.65039,-1.53711 0.506,-0.458 1.05856,-1.37988 1.22656,-2.04688 0.167,-0.667 0.62268,-1.21289 1.01368,-1.21289 0.458,0 0.82887,-0.798 1.04687,-2.25 0.186,-1.237 0.50213,-2.25 0.70313,-2.25 0.576,0 1.52148,-3.6683 1.52148,-5.9043 0,-1.12 0.225,-2.1757 0.5,-2.3457 0.637,-0.394 0.69845,-270.568891 0.0605,-270.962891 -0.242,-0.149 -0.53439,-1.568297 -0.65039,-3.154297 -0.115,-1.585999 -0.58588,-3.637593 -1.04688,-4.558593 -0.461,-0.922 -0.98125,-2.441 -1.15625,-3.375 C 362.53193,17.764219 362.09152,17 361.72852,17 c -0.363,0 -0.81968,-0.506 -1.01368,-1.125 -0.194,-0.619 -0.76934,-1.657594 -1.27734,-2.308594 -0.508,-0.651 -0.80234,-1.382 -0.65234,-1.625 0.15,-0.242 -0.0779,-0.441406 -0.50586,-0.441406 -0.429,0 -0.7793,-0.188922 -0.7793,-0.419922 0,-0.705 -4.02967,-4.580078 -4.76367,-4.580078 -0.377,0 -0.86594,-0.2867187 -1.08594,-0.6367188 C 351.43039,5.5142812 350.631,4.957 349.875,4.625 349.119,4.293 348.5,3.7927186 348.5,3.5117188 348.5,3.2307187 348.06997,3 347.54297,3 c -0.527,0 -1.04616,-0.2591719 -1.15235,-0.5761719 -0.105,-0.317 -0.63282,-0.6084375 -1.17382,-0.6484375 -0.541,-0.04 -1.24736,-0.2345937 -1.56836,-0.4335937 C 342.32906,0.52679637 333.6163,0.00977539 327.26758,0.04296875 Z m 35.00586,0.01367187 C 358.46197,0.07588867 355.5,0.289875 355.5,0.75 c 0,0.483 0.48333,0.75 1.35938,0.75 C 358.33837,1.5 367.5,5.8643594 367.5,6.5683594 367.5,6.8063594 367.79239,7 368.15039,7 c 0.61,0 4.17761,3.244312 5.84961,5.320312 1.909,2.369 4.5,6.944313 4.5,7.945313 0,0.404 0.2373,0.734375 0.5293,0.734375 0.291,0 0.40023,0.21075 0.24023,0.46875 -0.16,0.258 0.10675,0.692844 0.59375,0.964844 1.381,0.773 1.381,284.859816 0,285.632816 -0.487,0.272 -0.75375,0.70684 -0.59375,0.96484 0.16,0.258 0.0508,0.46875 -0.24023,0.46875 -0.292,0 -0.5293,0.43003 -0.5293,0.95703 0,0.527 -0.169,1.034 -0.375,1.125 -0.206,0.092 -0.91522,1.24174 -1.57422,2.55274 -0.66,1.312 -1.616,2.887 -2.125,3.5 -2.269,2.732 -5.23497,5.36523 -6.04297,5.36523 -0.485,0 -0.88281,0.31327 -0.88281,0.69727 0,0.669 -1.348,1.54585 -2.125,1.38085 -0.206,-0.043 -0.375,0.14688 -0.375,0.42188 0,0.275 -0.34181,0.5 -0.75781,0.5 -0.843,0 -2.81746,1.00936 -3.31446,1.69336 -0.177,0.244 -1.47,0.55445 -2.875,0.68945 -2.075,0.199 -2.55273,0.42064 -2.55273,1.18164 0,1.495 21.65455,0.98022 23.18555,-0.55078 0.283,-0.283 1.03206,-0.51367 1.66406,-0.51367 0.633,0 1.15039,-0.225 1.15039,-0.5 0,-0.275 0.337,-0.5 0.75,-0.5 0.413,0 0.75,-0.20317 0.75,-0.45117 0,-0.248 0.675,-0.68661 1.5,-0.97461 0.825,-0.288 1.5,-0.74367 1.5,-1.01367 0,-0.271 0.506,-0.64503 1.125,-0.83203 0.619,-0.187 2.19972,-1.44966 3.51172,-2.80664 1.312,-1.35702 2.57178,-2.35099 2.80078,-2.20899 0.23,0.142 0.31641,-0.27859 0.19141,-0.93359 -0.162,-0.846 0.0743,-1.35296 0.82031,-1.75196 0.578,-0.309 1.05078,-1.02579 1.05078,-1.59179 0,-0.609 0.409,-1.13602 1,-1.29102 0.553,-0.145 1,-0.68212 1,-1.20312 0,-0.518 0.19841,-0.94141 0.44141,-0.94141 0.244,0 0.59811,-1.238 0.78711,-2.75 0.189,-1.512 0.55164,-2.75 0.80664,-2.75 C 399.81916,306 400,251.475 400,165.25 400,83.97 399.81359,24.5 399.55859,24.5 c -0.244,0 -0.59811,-1.237 -0.78711,-2.75 -0.189,-1.512 -0.55164,-2.75 -0.80664,-2.75 -0.255,0 -0.46484,-0.45 -0.46484,-1 0,-0.563 -0.33272,-1 -0.76172,-1 -0.443,0 -0.88569,-0.611078 -1.05469,-1.455078 -0.17,-0.848 -0.68628,-1.559125 -1.23828,-1.703125 -0.52,-0.136 -0.94531,-0.624985 -0.94531,-1.083985 0,-0.459998 -0.9,-1.754953 -2,-2.8769526 -1.1,-1.122 -2,-2.211875 -2,-2.421875 C 389.5,7.2489844 388.712,6.818 387.75,6.5 386.788,6.182 386,5.7092187 386,5.4492188 c 0,-0.2610002 -0.506,-0.6939375 -1.125,-0.9609376 -1.497,-0.6469998 -3.04713,-1.6323593 -3.45312,-2.1933593 -0.181,-0.251 -0.74777,-0.4854375 -1.25977,-0.5234375 -0.511,-0.038 -1.1993,-0.2354519 -1.5293,-0.4394532 C 377.33906,0.53203215 368.62588,0.02456056 362.27344,0.05664062 Z M 112.32227,0.11132812 C 62.55459,0.15148243 22.59675,0.3295 21.75,0.671875 19.171,1.715875 16.256031,3.234 16.082031,3.625 15.991031,3.831 15.534359,4 15.068359,4 14.601359,4 13.896,4.45 13.5,5 13.104,5.55 12.505875,6 12.171875,6 11.380875,6 6,11.380875 6,12.171875 6,12.505875 5.55,13.104 5,13.5 4.45,13.896 4,14.601359 4,15.068359 4,15.534359 3.831,15.991031 3.625,16.082031 3.419,16.174031 2.575,17.6 1.75,19.25 l -1.5,3 v 143 c 0,139.147 0.0253594,143.047 0.9433594,144.75 0.518,0.962 1.5034531,2.83702 2.1894531,4.16602 0.686,1.328 1.5546406,2.53373 1.9316406,2.67773 0.377,0.145 0.6855469,0.6785 0.6855469,1.1875 0,1.041 5.314984,6.46875 6.333984,6.46875 0.362,0 0.93825,0.45 1.28125,1 0.344,0.55 1.019907,1 1.503907,1 0.484,0 0.880859,0.20031 0.880859,0.44531 0,0.245 0.619,0.60006 1.375,0.78907 0.756,0.18799 1.744266,0.67793 2.197266,1.08593 1.752,1.578 8.827734,1.65935 142.677734,1.65235 129.794,-0.006 145.13555,-0.15899 146.43555,-1.45899 0.283,-0.283 1.03206,-0.51367 1.66406,-0.51367 0.633,0 1.15039,-0.225 1.15039,-0.5 0,-0.275 0.338,-0.5 0.75,-0.5 0.413,0 1.2,-0.45 1.75,-1 0.55,-0.55 1.3503,-1 1.7793,-1 0.428,0 0.63879,-0.22786 0.46679,-0.50586 -0.173,-0.281 0.36871,-0.6425 1.22071,-0.8125 0.843,-0.169 1.5332,-0.47655 1.5332,-0.68555 0,-0.53 4.02059,-4.49609 4.55859,-4.49609 0.242,0 0.44141,-0.40444 0.44141,-0.89844 0,-0.883 0.895,-2.30015 2.625,-4.16015 0.481,-0.518 0.875,-1.27941 0.875,-1.69141 0,-0.413 0.225,-0.75 0.5,-0.75 0.275,0 0.5,-0.51739 0.5,-1.15039 0,-0.632 0.23544,-1.38388 0.52344,-1.67188 0.287,-0.287 0.65726,-2.18956 0.82226,-4.22656 0.188,-2.306 0.55752,-3.85256 0.97852,-4.10156 1.012,-0.599 1.01195,-270.34961 -0.002,-270.34961 -0.486,0 -0.7598,-1.080406 -0.9668,-3.816406 -0.159,-2.1 -0.52927,-4.05661 -0.82227,-4.34961 -0.294,-0.294 -0.5332,-1.050593 -0.5332,-1.683593 C 328.5009,19.518391 328.275,19 328,19 c -0.275,0 -0.5,-0.45 -0.5,-1 0,-0.55 -0.23072,-1 -0.51172,-1 -0.281,0 -0.78128,-0.619 -1.11328,-1.375 -0.332,-0.756 -0.88928,-1.555391 -1.23828,-1.775391 -0.35,-0.22 -0.63672,-0.839 -0.63672,-1.375 0,-0.536 -0.337,-0.974609 -0.75,-0.974609 -0.413,0 -0.75,-0.201266 -0.75,-0.447266 0,-0.705 -2.83259,-3.5531715 -3.18359,-3.2011715 C 319.14241,8.0255625 319,7.7910313 319,7.3320312 319,6.8390312 318.60239,6.5 318.02539,6.5 c -0.536,0 -1.155,-0.2867187 -1.375,-0.6367188 C 316.43039,5.5142812 315.631,4.957 314.875,4.625 314.119,4.293 313.5,3.7927186 313.5,3.5117188 313.5,3.2307187 313.07373,3 312.55273,3 c -0.52,0 -1.07065,-0.3237031 -1.22265,-0.7207031 -0.152,-0.396 -0.68174,-0.7178906 -1.17774,-0.7128907 -0.496,0.004 -1.80234,-0.2798125 -2.90234,-0.63281245 C 305.46312,0.35984375 195.26827,0.0444043 112.32227,0.11132812 Z M 170.33594,107.12695 c 2.65755,0.0225 4.99854,0.13768 6.41211,0.36914 1.649,0.27 3.07301,0.71905 3.16601,0.99805 0.092,0.278 1.38891,0.50586 2.87891,0.50586 1.66,0 2.70703,0.21659 2.70703,0.55859 0,0.307 0.40063,0.45418 0.89062,0.32618 0.48904,-0.128 1.17158,0.0704 1.51758,0.4414 0.347,0.371 1.29733,0.67383 2.11133,0.67383 0.814,0 1.48047,0.19936 1.48047,0.44336 0,0.245 0.76517,0.58767 1.70117,0.76367 0.936,0.176 1.84172,0.68491 2.01172,1.12891 0.171,0.445 0.4378,0.68039 0.5918,0.52539 0.482,-0.482 3.36358,0.7308 5.26758,2.21679 1.002,0.782 2.05203,1.42188 2.33203,1.42188 1.124,0 9.17172,7.47277 8.76172,8.13477 -0.176,0.286 -0.0868,0.37521 0.19921,0.19921 0.793,-0.491 7.13477,6.80987 7.13477,8.2129 0,0.45796 0.3503,1.12056 0.7793,1.47656 0.428,0.356 1.11253,1.44492 1.51953,2.41992 0.408,0.974 0.96428,1.91108 1.23828,2.08008 0.274,0.169 0.63573,1.18862 0.80273,2.26562 0.166,1.078 0.71947,2.36447 1.23047,2.85547 0.511,0.492 0.92969,1.561 0.92969,2.375 0,0.815 0.19655,1.48047 0.43555,1.48047 1.241,0 2.017,21.542 2.375,65.875 0.213,26.474 0.21012,26.625 -0.79688,26.625 -0.68,0 -1.01367,0.329 -1.01367,1 0,0.55 -0.281,1.00572 -0.625,1.01172 -0.344,0.006 -1.187,0.45028 -1.875,0.98828 -1.306,1.022 -5,1.391 -5,0.5 0,-0.275 -0.338,-0.5 -0.75,-0.5 -0.412,0 -1.2,-0.45 -1.75,-1 -0.55,-0.55 -1.31041,-1 -1.69141,-1 -0.743,0 -1.46707,-1.699 -1.33007,-3.125 0.046,-0.481 -0.15427,-0.875 -0.44727,-0.875 -0.37,0 -0.53125,-12.08161 -0.53125,-39.97461 0,-33.157 -0.11669,-40.044 -0.67969,-40.375 -0.374,-0.22 -0.82967,-1.52539 -1.01367,-2.90039 -0.841,-6.274 -0.95409,-6.75 -1.62109,-6.75 -0.414,0 -0.68555,-0.54395 -0.68555,-1.37695 0,-0.873 -0.53489,-1.87986 -1.46289,-2.75586 -0.804,-0.759 -1.60906,-2.05105 -1.78906,-2.87305 -0.181,-0.821 -0.7838,-1.81312 -1.3418,-2.20312 -0.613,-0.43 -0.86381,-0.95513 -0.63281,-1.32813 0.246,-0.399 0.17483,-0.49081 -0.20117,-0.25781 -0.352,0.217 -1.92013,-0.98521 -3.95313,-3.0332 -3.372,-3.396 -5.12678,-4.67188 -6.42578,-4.67188 -0.381,0 -0.69336,-0.225 -0.69336,-0.5 0,-0.275 -0.34462,-0.5 -0.76562,-0.5 -0.42101,0 -0.88716,-0.31517 -1.03516,-0.70117 -0.148,-0.385 -1.01855,-0.84167 -1.93555,-1.01367 -0.917,-0.172 -1.79422,-0.64383 -1.94922,-1.04883 C 186.65045,125.81033 185.887,125.5 185,125.5 c -0.843,0 -2.36863,-0.3503 -3.39062,-0.7793 -1.07501,-0.45 -2.96919,-0.7282 -4.49219,-0.6582 -1.52,0.069 -2.88361,-0.1297 -3.22461,-0.4707 -0.908,-0.908 -16.39258,-0.82653 -16.39258,0.0859 0,0.51 -0.61228,0.61555 -2.48828,0.43555 -1.689,-0.162 -3.03917,0.0222 -4.20117,0.57422 -0.942,0.446 -2.39733,0.8125 -3.23633,0.8125 -0.897,0 -1.71433,0.33922 -1.98633,0.82422 -0.291,0.52 -0.83933,0.72664 -1.48633,0.55664 -0.778,-0.203 -0.95547,-0.0802 -0.73047,0.50781 0.212,0.551 0.10868,0.65719 -0.36132,0.36719 -0.421,-0.26 -0.90694,-0.0733 -1.33594,0.51367 -0.371,0.507 -0.67383,0.72628 -0.67383,0.48828 0,-0.238 -0.506,0.0317 -1.125,0.59766 -1.097,1.005 -3.249,1.94314 -4,1.74414 -0.206,-0.054 -0.375,0.24311 -0.375,0.66211 0,0.445 -0.61566,0.88564 -1.47266,1.05664 -1.125,0.225 -1.509,0.60628 -1.625,1.61328 -0.108,0.927 -0.48634,1.36552 -1.27734,1.47852 -0.723,0.102 -1.125,0.504 -1.125,1.125 0,0.682 -0.3485,0.96484 -1.1875,0.96484 -0.928,0 -1.25509,0.33988 -1.49609,1.54688 -0.194,0.967 -0.6845,1.64264 -1.3125,1.80664 -0.554,0.145 -1.00391,0.68317 -1.00391,1.20117 0,0.516 -0.45,1.21754 -1,1.56054 -0.608,0.379 -1,1.16591 -1,2.00391 0,0.759 -0.24873,1.38086 -0.55273,1.38086 -0.305,0 -0.4161,0.36364 -0.2461,0.80664 0.213,0.555 0.0933,0.72211 -0.38867,0.53711 -0.478,-0.184 -0.6258,0.0111 -0.4668,0.61914 0.128,0.488 -0.17964,1.29878 -0.68164,1.80078 -0.868,0.868 -0.92706,3.17733 -1.16406,45.73633 -0.27,48.331 -0.16384,46.5 -2.71484,46.5 -0.432,0 -0.78516,0.225 -0.78516,0.5 0,0.275 -0.562,0.5 -1.25,0.5 -0.687,0 -1.25,0.225 -1.25,0.5 0,0.275 -0.9,0.5 -2,0.5 -1.1,0 -2,-0.225 -2,-0.5 0,-0.275 -0.26866,-0.5 -0.59766,-0.5 -1.117,0 -4.40234,-2.63139 -4.40234,-3.52539 0,-0.49 -0.281,-0.98461 -0.625,-1.09961 -0.496,-0.165 -0.625,-13.136 -0.625,-62.625 0,-49.489 0.129,-62.46 0.625,-62.625 0.344,-0.115 0.625,-0.76908 0.625,-1.45508 0,-2.854 2.46573,-4.22545 7.30273,-4.06445 l 4.3418,0.14453 1.51758,1.87891 c 1.499,1.855 1.52314,1.96901 1.74414,8.91601 0.274,8.567 0.39769,8.673 4.92969,4.25 1.857,-1.812 3.56683,-3.29492 3.79883,-3.29492 0.232,0 1.02657,-0.64936 1.76757,-1.44336 0.741,-0.793 1.85366,-1.5962 2.47266,-1.7832 0.619,-0.188 1.125,-0.5231 1.125,-0.7461 0,-0.223 0.731,-0.70531 1.625,-1.07031 0.894,-0.366 1.92116,-0.95555 2.28516,-1.31055 0.363,-0.355 0.95545,-0.64648 1.31445,-0.64648 0.36,0 0.91437,-0.31517 1.23437,-0.70117 0.32,-0.385 1.18882,-0.85206 1.93164,-1.03906 0.74201,-0.186 1.49965,-0.58096 1.68165,-0.87696 0.183,-0.296 1.07446,-0.51623 1.98046,-0.49023 1.101,0.031 1.87218,-0.27583 2.32618,-0.92383 0.509,-0.727 1.26882,-0.96875 3.04882,-0.96875 1.305,0 2.6531,-0.281 2.9961,-0.625 0.66062,-0.66062 7.44733,-1.15959 13.67187,-1.24023 0.93369,-0.0121 1.85439,-0.0119 2.74024,-0.008 z"
       style="fill-rule:evenodd;fill:#ffffff"
       id="path0" />
  </g>
</svg>
